<mxfile host="app.diagrams.net" modified="2024-01-02T17:19:47.262Z" agent="Mozilla/5.0 (Windows NT 10.0; Win64; x64) AppleWebKit/537.36 (KHTML, like Gecko) Chrome/120.0.0.0 Safari/537.36 Edg/120.0.0.0" etag="J0ugQY0hwYbPCqlgII5S" version="22.1.16" type="device">
  <diagram name="Page-1" id="O5MZVU0uX8mg8WbX39qI">
    <mxGraphModel dx="1230" dy="817" grid="1" gridSize="10" guides="1" tooltips="1" connect="1" arrows="1" fold="1" page="1" pageScale="1" pageWidth="827" pageHeight="1169" math="0" shadow="0">
      <root>
        <mxCell id="0" />
        <mxCell id="1" parent="0" />
        <mxCell id="I_1EfVJCWDu975_tZ_0z-16" style="edgeStyle=orthogonalEdgeStyle;rounded=0;orthogonalLoop=1;jettySize=auto;html=1;exitX=0.5;exitY=1;exitDx=0;exitDy=0;entryX=0.5;entryY=0;entryDx=0;entryDy=0;" edge="1" parent="1" source="I_1EfVJCWDu975_tZ_0z-2" target="I_1EfVJCWDu975_tZ_0z-15">
          <mxGeometry relative="1" as="geometry" />
        </mxCell>
        <mxCell id="I_1EfVJCWDu975_tZ_0z-2" value="Bắt đầu" style="ellipse;whiteSpace=wrap;html=1;" vertex="1" parent="1">
          <mxGeometry x="354" y="160" width="120" height="80" as="geometry" />
        </mxCell>
        <mxCell id="I_1EfVJCWDu975_tZ_0z-25" style="edgeStyle=orthogonalEdgeStyle;rounded=0;orthogonalLoop=1;jettySize=auto;html=1;exitX=0.5;exitY=1;exitDx=0;exitDy=0;entryX=0.5;entryY=0;entryDx=0;entryDy=0;" edge="1" parent="1" source="I_1EfVJCWDu975_tZ_0z-4" target="I_1EfVJCWDu975_tZ_0z-7">
          <mxGeometry relative="1" as="geometry" />
        </mxCell>
        <mxCell id="I_1EfVJCWDu975_tZ_0z-4" value="Nhập ID thẻ từ&lt;br&gt;&amp;nbsp;cần xóa" style="shape=parallelogram;perimeter=parallelogramPerimeter;whiteSpace=wrap;html=1;fixedSize=1;" vertex="1" parent="1">
          <mxGeometry x="520" y="280" width="120" height="60" as="geometry" />
        </mxCell>
        <mxCell id="I_1EfVJCWDu975_tZ_0z-22" style="edgeStyle=orthogonalEdgeStyle;rounded=0;orthogonalLoop=1;jettySize=auto;html=1;exitX=0.5;exitY=1;exitDx=0;exitDy=0;" edge="1" parent="1" source="I_1EfVJCWDu975_tZ_0z-7">
          <mxGeometry relative="1" as="geometry">
            <mxPoint x="415" y="490" as="targetPoint" />
          </mxGeometry>
        </mxCell>
        <mxCell id="I_1EfVJCWDu975_tZ_0z-23" style="edgeStyle=orthogonalEdgeStyle;rounded=0;orthogonalLoop=1;jettySize=auto;html=1;exitX=1;exitY=0.5;exitDx=0;exitDy=0;entryX=0.5;entryY=0;entryDx=0;entryDy=0;" edge="1" parent="1" source="I_1EfVJCWDu975_tZ_0z-7" target="I_1EfVJCWDu975_tZ_0z-11">
          <mxGeometry relative="1" as="geometry">
            <Array as="points">
              <mxPoint x="500" y="420" />
              <mxPoint x="500" y="570" />
              <mxPoint x="413" y="570" />
            </Array>
          </mxGeometry>
        </mxCell>
        <mxCell id="I_1EfVJCWDu975_tZ_0z-7" value="Thẻ có tồn tại &lt;br&gt;trong hệ thống" style="rhombus;whiteSpace=wrap;html=1;" vertex="1" parent="1">
          <mxGeometry x="350" y="380" width="130" height="80" as="geometry" />
        </mxCell>
        <mxCell id="I_1EfVJCWDu975_tZ_0z-8" style="edgeStyle=orthogonalEdgeStyle;rounded=0;orthogonalLoop=1;jettySize=auto;html=1;exitX=0.5;exitY=1;exitDx=0;exitDy=0;" edge="1" parent="1" source="I_1EfVJCWDu975_tZ_0z-9">
          <mxGeometry relative="1" as="geometry">
            <mxPoint x="413" y="582" as="targetPoint" />
          </mxGeometry>
        </mxCell>
        <mxCell id="I_1EfVJCWDu975_tZ_0z-9" value="Xóa thẻ từ" style="rounded=0;whiteSpace=wrap;html=1;" vertex="1" parent="1">
          <mxGeometry x="353" y="492" width="120" height="60" as="geometry" />
        </mxCell>
        <mxCell id="I_1EfVJCWDu975_tZ_0z-10" style="edgeStyle=orthogonalEdgeStyle;rounded=0;orthogonalLoop=1;jettySize=auto;html=1;exitX=0.5;exitY=1;exitDx=0;exitDy=0;entryX=0.5;entryY=0;entryDx=0;entryDy=0;" edge="1" parent="1" source="I_1EfVJCWDu975_tZ_0z-11">
          <mxGeometry relative="1" as="geometry">
            <mxPoint x="413" y="672" as="targetPoint" />
          </mxGeometry>
        </mxCell>
        <mxCell id="I_1EfVJCWDu975_tZ_0z-11" value="Thông báo lên màn hình" style="rounded=0;whiteSpace=wrap;html=1;" vertex="1" parent="1">
          <mxGeometry x="353" y="584" width="120" height="60" as="geometry" />
        </mxCell>
        <mxCell id="I_1EfVJCWDu975_tZ_0z-12" value="Kết thúc" style="ellipse;whiteSpace=wrap;html=1;" vertex="1" parent="1">
          <mxGeometry x="354" y="672" width="120" height="80" as="geometry" />
        </mxCell>
        <mxCell id="I_1EfVJCWDu975_tZ_0z-13" value="F" style="text;html=1;align=center;verticalAlign=middle;resizable=0;points=[];autosize=1;strokeColor=none;fillColor=none;" vertex="1" parent="1">
          <mxGeometry x="465" y="390" width="30" height="30" as="geometry" />
        </mxCell>
        <mxCell id="I_1EfVJCWDu975_tZ_0z-14" value="T" style="text;html=1;align=center;verticalAlign=middle;resizable=0;points=[];autosize=1;strokeColor=none;fillColor=none;" vertex="1" parent="1">
          <mxGeometry x="414" y="460" width="30" height="30" as="geometry" />
        </mxCell>
        <mxCell id="I_1EfVJCWDu975_tZ_0z-19" style="edgeStyle=orthogonalEdgeStyle;rounded=0;orthogonalLoop=1;jettySize=auto;html=1;exitX=0.5;exitY=1;exitDx=0;exitDy=0;entryX=0.5;entryY=0;entryDx=0;entryDy=0;" edge="1" parent="1" source="I_1EfVJCWDu975_tZ_0z-15" target="I_1EfVJCWDu975_tZ_0z-7">
          <mxGeometry relative="1" as="geometry" />
        </mxCell>
        <mxCell id="I_1EfVJCWDu975_tZ_0z-20" style="edgeStyle=orthogonalEdgeStyle;rounded=0;orthogonalLoop=1;jettySize=auto;html=1;exitX=1;exitY=0.5;exitDx=0;exitDy=0;entryX=0;entryY=0.5;entryDx=0;entryDy=0;" edge="1" parent="1" source="I_1EfVJCWDu975_tZ_0z-15" target="I_1EfVJCWDu975_tZ_0z-4">
          <mxGeometry relative="1" as="geometry" />
        </mxCell>
        <mxCell id="I_1EfVJCWDu975_tZ_0z-15" value="Có thẻ được quét" style="rhombus;whiteSpace=wrap;html=1;" vertex="1" parent="1">
          <mxGeometry x="344.5" y="270" width="139" height="80" as="geometry" />
        </mxCell>
        <mxCell id="I_1EfVJCWDu975_tZ_0z-18" value="F" style="text;html=1;align=center;verticalAlign=middle;resizable=0;points=[];autosize=1;strokeColor=none;fillColor=none;" vertex="1" parent="1">
          <mxGeometry x="465" y="280" width="30" height="30" as="geometry" />
        </mxCell>
        <mxCell id="I_1EfVJCWDu975_tZ_0z-21" value="T" style="text;html=1;align=center;verticalAlign=middle;resizable=0;points=[];autosize=1;strokeColor=none;fillColor=none;" vertex="1" parent="1">
          <mxGeometry x="390" y="350" width="30" height="30" as="geometry" />
        </mxCell>
      </root>
    </mxGraphModel>
  </diagram>
</mxfile>
